<svg xmlns="http://www.w3.org/2000/svg" xmlns:xlink="http://www.w3.org/1999/xlink" width="1080" zoomAndPan="magnify" viewBox="0 0 810 809.999993" height="1080" preserveAspectRatio="xMidYMid meet" version="1.0"><defs><clipPath id="0511b8c302"><path d="M 10.128906 208 L 799.878906 208 L 799.878906 801 L 10.128906 801 Z M 10.128906 208 " clip-rule="nonzero"/></clipPath></defs><path fill="#93bde4" d="M 584.253906 20.882812 C 584.253906 22.558594 584.589844 24.164062 585.269531 25.695312 C 585.945312 27.230469 586.90625 28.558594 588.148438 29.683594 L 528.738281 108.261719 C 528.3125 107.996094 527.875 107.761719 527.421875 107.550781 C 526.964844 107.34375 526.5 107.164062 526.023438 107.011719 C 525.546875 106.863281 525.0625 106.742188 524.570312 106.65625 C 524.078125 106.566406 523.582031 106.507812 523.085938 106.480469 C 522.585938 106.457031 522.085938 106.460938 521.589844 106.5 C 521.089844 106.535156 520.59375 106.605469 520.105469 106.703125 C 519.617188 106.804688 519.132812 106.933594 518.660156 107.09375 C 518.1875 107.253906 517.726562 107.445312 517.277344 107.664062 C 516.828125 107.882812 516.394531 108.128906 515.976562 108.402344 C 515.558594 108.679688 515.160156 108.976562 514.777344 109.300781 C 514.398438 109.625 514.039062 109.972656 513.703125 110.34375 C 513.367188 110.714844 513.058594 111.101562 512.769531 111.511719 C 512.484375 111.921875 512.222656 112.347656 511.992188 112.789062 C 511.757812 113.230469 511.554688 113.6875 511.378906 114.15625 C 511.203125 114.625 511.058594 115.101562 510.945312 115.585938 C 510.828125 116.074219 510.746094 116.566406 510.695312 117.0625 C 481.824219 114.488281 403.816406 103.863281 344.097656 95.304688 C 344.097656 95.085938 344.097656 94.886719 344.097656 94.667969 C 344.097656 94.003906 344.039062 93.347656 343.929688 92.695312 C 343.820312 92.042969 343.65625 91.40625 343.4375 90.78125 C 343.222656 90.15625 342.953125 89.554688 342.636719 88.972656 C 342.316406 88.394531 341.953125 87.84375 341.542969 87.324219 C 341.132812 86.804688 340.679688 86.324219 340.1875 85.882812 C 339.699219 85.4375 339.171875 85.039062 338.613281 84.683594 C 338.054688 84.328125 337.472656 84.023438 336.863281 83.765625 C 336.253906 83.507812 335.625 83.300781 334.980469 83.148438 C 334.335938 82.996094 333.6875 82.898438 333.023438 82.855469 C 332.363281 82.8125 331.707031 82.828125 331.046875 82.894531 C 330.390625 82.960938 329.742188 83.082031 329.101562 83.261719 C 328.464844 83.4375 327.847656 83.664062 327.246094 83.945312 C 326.648438 84.222656 326.074219 84.550781 325.53125 84.929688 C 324.984375 85.304688 324.476562 85.722656 324 86.183594 C 323.527344 86.644531 323.09375 87.144531 322.703125 87.675781 C 322.3125 88.210938 321.96875 88.773438 321.671875 89.367188 L 156.460938 24.203125 C 156.691406 23.414062 156.835938 22.609375 156.898438 21.789062 C 156.960938 20.96875 156.933594 20.148438 156.824219 19.332031 C 156.714844 18.519531 156.523438 17.722656 156.25 16.945312 C 155.972656 16.171875 155.621094 15.433594 155.191406 14.730469 C 154.761719 14.027344 154.265625 13.378906 153.699219 12.78125 C 153.132812 12.179688 152.511719 11.648438 151.835938 11.179688 C 151.160156 10.710938 150.441406 10.316406 149.683594 9.996094 C 148.925781 9.675781 148.140625 9.441406 147.332031 9.285156 C 146.523438 9.128906 145.707031 9.058594 144.886719 9.070312 C 144.0625 9.085938 143.25 9.183594 142.449219 9.367188 C 141.644531 9.554688 140.871094 9.816406 140.121094 10.164062 C 139.375 10.507812 138.671875 10.925781 138.011719 11.417969 C 137.351562 11.910156 136.75 12.464844 136.207031 13.085938 C 135.664062 13.703125 135.1875 14.371094 134.785156 15.085938 C 134.378906 15.800781 134.050781 16.554688 133.804688 17.339844 C 133.554688 18.121094 133.390625 18.925781 133.3125 19.742188 C 133.230469 20.5625 133.234375 21.382812 133.324219 22.199219 C 133.414062 23.015625 133.589844 23.816406 133.84375 24.597656 C 134.101562 25.382812 134.4375 26.128906 134.851562 26.839844 C 135.261719 27.550781 135.746094 28.214844 136.296875 28.824219 C 136.847656 29.4375 137.453125 29.984375 138.121094 30.46875 C 138.785156 30.953125 139.492188 31.367188 140.246094 31.703125 C 140.996094 32.039062 141.773438 32.296875 142.578125 32.46875 C 143.382812 32.644531 144.195312 32.734375 145.019531 32.742188 C 145.898438 32.738281 146.761719 32.636719 147.617188 32.433594 L 164.164062 83.667969 C 163.589844 83.910156 163.039062 84.195312 162.511719 84.527344 C 161.984375 84.855469 161.484375 85.226562 161.015625 85.632812 C 160.546875 86.042969 160.113281 86.484375 159.710938 86.960938 C 159.3125 87.4375 158.953125 87.941406 158.632812 88.476562 C 158.3125 89.007812 158.035156 89.5625 157.804688 90.140625 C 157.570312 90.71875 157.386719 91.308594 157.246094 91.914062 C 157.105469 92.523438 157.015625 93.136719 156.972656 93.757812 C 156.929688 94.375 156.9375 94.996094 156.992188 95.617188 C 157.046875 96.234375 157.152344 96.847656 157.304688 97.449219 C 157.453125 98.054688 157.652344 98.640625 157.898438 99.214844 C 158.140625 99.785156 158.429688 100.335938 158.761719 100.863281 C 159.089844 101.386719 159.460938 101.886719 159.871094 102.355469 C 160.28125 102.824219 160.722656 103.257812 161.203125 103.652344 C 161.679688 104.050781 162.1875 104.410156 162.71875 104.730469 C 163.253906 105.046875 163.8125 105.324219 164.390625 105.554688 C 164.964844 105.785156 165.558594 105.96875 166.164062 106.105469 L 145.414062 260.515625 L 145.019531 260.515625 C 144.242188 260.515625 143.46875 260.59375 142.707031 260.746094 C 141.945312 260.898438 141.203125 261.121094 140.484375 261.421875 C 139.765625 261.71875 139.082031 262.082031 138.433594 262.515625 C 137.789062 262.949219 137.191406 263.441406 136.640625 263.992188 C 136.089844 264.542969 135.597656 265.140625 135.167969 265.789062 C 134.738281 266.4375 134.371094 267.121094 134.074219 267.839844 C 133.777344 268.558594 133.554688 269.300781 133.402344 270.0625 C 133.253906 270.824219 133.179688 271.597656 133.179688 272.375 C 133.175781 273.496094 133.332031 274.597656 133.640625 275.675781 L 73.898438 299.015625 C 73.5625 298.339844 73.167969 297.703125 72.710938 297.105469 C 72.253906 296.507812 71.746094 295.957031 71.183594 295.457031 C 70.625 294.953125 70.019531 294.511719 69.375 294.125 C 68.726562 293.738281 68.050781 293.414062 67.34375 293.15625 C 66.636719 292.898438 65.910156 292.710938 65.167969 292.589844 C 64.421875 292.472656 63.675781 292.421875 62.921875 292.445312 C 62.171875 292.46875 61.425781 292.5625 60.691406 292.726562 C 59.957031 292.890625 59.246094 293.121094 58.554688 293.421875 C 57.863281 293.722656 57.207031 294.085938 56.585938 294.507812 C 55.964844 294.933594 55.386719 295.414062 54.859375 295.949219 C 54.328125 296.484375 53.851562 297.0625 53.433594 297.6875 C 53.015625 298.3125 52.65625 298.972656 52.363281 299.664062 C 52.070312 300.359375 51.84375 301.070312 51.683594 301.808594 C 51.527344 302.542969 51.4375 303.289062 51.421875 304.039062 C 51.40625 304.792969 51.460938 305.539062 51.585938 306.28125 C 51.714844 307.023438 51.910156 307.75 52.171875 308.453125 C 52.4375 309.160156 52.765625 309.832031 53.15625 310.476562 C 53.550781 311.117188 54 311.71875 54.503906 312.273438 C 55.011719 312.832031 55.566406 313.335938 56.167969 313.785156 C 56.773438 314.238281 57.410156 314.628906 58.089844 314.957031 C 58.765625 315.289062 59.46875 315.550781 60.195312 315.746094 C 60.921875 315.941406 61.660156 316.066406 62.410156 316.121094 C 63.164062 316.175781 63.910156 316.160156 64.660156 316.074219 C 65.40625 315.988281 66.140625 315.828125 66.859375 315.601562 L 127.722656 461.808594 C 126.988281 462.183594 126.300781 462.632812 125.660156 463.152344 C 125.019531 463.671875 124.441406 464.253906 123.921875 464.894531 C 123.402344 465.535156 122.953125 466.222656 122.578125 466.960938 C 122.203125 467.695312 121.90625 468.460938 121.691406 469.257812 C 121.472656 470.050781 121.34375 470.863281 121.296875 471.6875 C 121.25 472.511719 121.289062 473.332031 121.414062 474.144531 C 121.539062 474.960938 121.746094 475.757812 122.035156 476.527344 C 122.324219 477.300781 122.691406 478.035156 123.136719 478.730469 C 123.582031 479.425781 124.089844 480.070312 124.667969 480.660156 C 125.246094 481.246094 125.878906 481.769531 126.566406 482.226562 C 127.253906 482.683594 127.980469 483.066406 128.75 483.371094 C 129.515625 483.675781 130.304688 483.902344 131.117188 484.039062 C 131.933594 484.179688 132.75 484.238281 133.578125 484.207031 C 134.402344 484.175781 135.214844 484.058594 136.015625 483.859375 C 136.816406 483.660156 137.585938 483.378906 138.328125 483.019531 C 139.070312 482.65625 139.769531 482.222656 140.421875 481.714844 L 252.84375 604.492188 C 252.070312 605.328125 251.433594 606.253906 250.929688 607.273438 C 250.429688 608.292969 250.078125 609.363281 249.882812 610.480469 C 249.6875 611.601562 249.65625 612.726562 249.785156 613.855469 C 249.914062 614.984375 250.199219 616.070312 250.640625 617.117188 L 119.40625 687.867188 C 119.175781 687.519531 118.925781 687.183594 118.664062 686.859375 C 118.398438 686.539062 118.113281 686.230469 117.816406 685.9375 C 117.519531 685.644531 117.207031 685.367188 116.878906 685.109375 C 116.550781 684.847656 116.210938 684.605469 115.859375 684.382812 C 115.507812 684.160156 115.140625 683.953125 114.769531 683.769531 C 114.394531 683.582031 114.011719 683.417969 113.617188 683.273438 C 113.226562 683.128906 112.828125 683.003906 112.421875 682.902344 C 112.019531 682.800781 111.609375 682.71875 111.195312 682.660156 C 110.78125 682.597656 110.367188 682.5625 109.949219 682.546875 C 109.53125 682.53125 109.113281 682.535156 108.695312 682.566406 C 108.28125 682.59375 107.867188 682.644531 107.453125 682.714844 C 107.042969 682.789062 106.636719 682.882812 106.234375 682.996094 C 105.832031 683.113281 105.4375 683.246094 105.050781 683.40625 C 104.664062 683.5625 104.285156 683.738281 103.917969 683.933594 C 103.546875 684.132812 103.191406 684.347656 102.84375 684.582031 C 102.5 684.816406 102.167969 685.070312 101.847656 685.339844 C 101.527344 685.609375 101.226562 685.894531 100.9375 686.195312 C 100.648438 686.496094 100.375 686.8125 100.117188 687.144531 C 99.863281 687.472656 99.625 687.816406 99.40625 688.171875 C 99.1875 688.527344 98.988281 688.894531 98.808594 689.273438 C 98.625 689.648438 98.464844 690.035156 98.328125 690.425781 C 98.1875 690.820312 98.066406 691.222656 97.96875 691.628906 C 97.875 692.035156 97.796875 692.445312 97.742188 692.859375 C 97.6875 693.273438 97.65625 693.6875 97.648438 694.105469 C 97.636719 694.523438 97.648438 694.941406 97.683594 695.355469 C 97.714844 695.773438 97.773438 696.1875 97.847656 696.597656 C 97.925781 697.007812 98.027344 697.414062 98.148438 697.8125 C 98.265625 698.210938 98.40625 698.605469 98.570312 698.988281 C 98.730469 699.375 98.914062 699.75 99.117188 700.117188 C 99.316406 700.484375 99.539062 700.835938 99.777344 701.179688 C 100.015625 701.523438 100.273438 701.851562 100.546875 702.167969 C 100.820312 702.480469 101.109375 702.78125 101.414062 703.066406 C 101.722656 703.351562 102.039062 703.621094 102.375 703.871094 C 102.707031 704.121094 103.054688 704.355469 103.414062 704.570312 C 103.773438 704.785156 104.140625 704.980469 104.519531 705.15625 C 104.898438 705.328125 105.285156 705.484375 105.683594 705.621094 C 106.078125 705.753906 106.480469 705.867188 106.886719 705.960938 C 107.292969 706.050781 107.707031 706.121094 108.121094 706.171875 C 108.535156 706.21875 108.953125 706.246094 109.371094 706.25 C 109.789062 706.253906 110.203125 706.238281 110.621094 706.199219 C 111.035156 706.160156 111.449219 706.097656 111.859375 706.015625 C 112.269531 705.933594 112.671875 705.828125 113.070312 705.703125 C 113.46875 705.578125 113.859375 705.429688 114.242188 705.265625 C 114.625 705.097656 115 704.910156 115.363281 704.703125 C 115.726562 704.496094 116.078125 704.273438 116.417969 704.027344 C 116.757812 703.785156 117.082031 703.523438 117.394531 703.246094 C 117.707031 702.96875 118.003906 702.675781 118.285156 702.367188 C 118.566406 702.058594 118.828125 701.734375 119.074219 701.398438 L 250.929688 780.902344 C 250.730469 781.300781 250.558594 781.710938 250.410156 782.128906 C 250.257812 782.546875 250.132812 782.976562 250.03125 783.410156 C 249.929688 783.84375 249.851562 784.28125 249.800781 784.722656 C 249.746094 785.164062 249.71875 785.609375 249.71875 786.054688 C 249.714844 786.5 249.738281 786.941406 249.785156 787.386719 C 249.832031 787.828125 249.90625 788.265625 250.003906 788.703125 C 250.097656 789.136719 250.21875 789.5625 250.367188 789.984375 C 250.511719 790.40625 250.679688 790.816406 250.871094 791.21875 C 251.0625 791.621094 251.277344 792.011719 251.511719 792.390625 C 251.746094 792.765625 252.003906 793.128906 252.28125 793.480469 C 252.554688 793.828125 252.851562 794.160156 253.164062 794.476562 C 253.480469 794.792969 253.808594 795.089844 254.15625 795.367188 C 254.503906 795.648438 254.867188 795.90625 255.242188 796.144531 C 255.621094 796.382812 256.007812 796.597656 256.410156 796.792969 C 256.8125 796.984375 257.222656 797.15625 257.640625 797.304688 C 258.0625 797.453125 258.488281 797.574219 258.921875 797.675781 C 259.355469 797.773438 259.796875 797.851562 260.238281 797.898438 C 260.679688 797.949219 261.125 797.976562 261.570312 797.976562 C 262.015625 797.976562 262.457031 797.953125 262.902344 797.902344 C 263.34375 797.851562 263.78125 797.777344 264.21875 797.679688 C 264.652344 797.578125 265.078125 797.457031 265.5 797.308594 C 265.917969 797.164062 266.328125 796.992188 266.730469 796.796875 C 267.132812 796.605469 267.519531 796.390625 267.898438 796.152344 C 268.273438 795.914062 268.636719 795.65625 268.984375 795.378906 C 269.332031 795.101562 269.664062 794.804688 269.980469 794.488281 C 270.292969 794.171875 270.589844 793.839844 270.867188 793.492188 C 271.144531 793.144531 271.398438 792.78125 271.636719 792.402344 C 271.871094 792.027344 272.085938 791.636719 272.277344 791.234375 C 272.46875 790.832031 272.640625 790.421875 272.785156 790 C 272.929688 789.582031 273.050781 789.152344 273.148438 788.71875 C 273.246094 788.285156 273.320312 787.84375 273.367188 787.402344 C 273.417969 786.960938 273.441406 786.515625 273.4375 786.070312 C 273.445312 784.320312 273.070312 782.65625 272.316406 781.078125 L 389.535156 713.101562 C 390.230469 714.078125 391.058594 714.933594 392.011719 715.660156 C 392.964844 716.390625 394.007812 716.957031 395.136719 717.371094 C 396.265625 717.78125 397.429688 718.015625 398.628906 718.074219 C 399.828125 718.132812 401.007812 718.011719 402.171875 717.710938 C 403.335938 717.410156 404.425781 716.945312 405.449219 716.3125 C 406.46875 715.679688 407.375 714.910156 408.160156 714.003906 C 408.949219 713.097656 409.582031 712.09375 410.066406 710.996094 C 410.546875 709.894531 410.855469 708.75 410.988281 707.554688 L 608.4375 744.292969 C 608.4375 744.667969 608.4375 745.042969 608.4375 745.417969 C 608.4375 746.195312 608.515625 746.964844 608.667969 747.730469 C 608.820312 748.492188 609.042969 749.234375 609.339844 749.953125 C 609.640625 750.671875 610.003906 751.355469 610.4375 752.003906 C 610.871094 752.652344 611.363281 753.25 611.914062 753.800781 C 612.464844 754.351562 613.0625 754.84375 613.710938 755.277344 C 614.355469 755.707031 615.039062 756.074219 615.761719 756.371094 C 616.480469 756.667969 617.222656 756.894531 617.984375 757.046875 C 618.75 757.199219 619.519531 757.273438 620.300781 757.273438 C 621.078125 757.273438 621.847656 757.199219 622.613281 757.046875 C 623.375 756.894531 624.117188 756.667969 624.839844 756.371094 C 625.558594 756.074219 626.242188 755.707031 626.886719 755.277344 C 627.535156 754.84375 628.136719 754.351562 628.6875 753.800781 C 629.238281 753.25 629.726562 752.652344 630.160156 752.003906 C 630.59375 751.355469 630.957031 750.671875 631.257812 749.953125 C 631.554688 749.234375 631.78125 748.492188 631.933594 747.730469 C 632.082031 746.964844 632.160156 746.195312 632.160156 745.417969 C 632.160156 744.636719 632.082031 743.867188 631.933594 743.101562 C 631.78125 742.339844 631.554688 741.597656 631.257812 740.878906 C 630.957031 740.160156 630.59375 739.476562 630.160156 738.828125 C 629.726562 738.179688 629.238281 737.582031 628.6875 737.03125 C 628.136719 736.480469 627.535156 735.988281 626.886719 735.558594 C 626.242188 735.125 625.558594 734.757812 624.839844 734.460938 C 624.117188 734.164062 623.375 733.9375 622.613281 733.785156 C 621.847656 733.636719 621.078125 733.558594 620.300781 733.558594 C 619.476562 733.5625 618.664062 733.640625 617.855469 733.800781 L 576.929688 599.738281 C 578.046875 599.28125 579.070312 598.667969 579.996094 597.898438 C 580.925781 597.125 581.722656 596.234375 582.378906 595.222656 C 583.035156 594.210938 583.527344 593.121094 583.851562 591.960938 C 584.175781 590.796875 584.320312 589.613281 584.28125 588.40625 C 584.246094 587.199219 584.027344 586.023438 583.632812 584.882812 C 583.238281 583.742188 582.679688 582.6875 581.964844 581.71875 C 581.246094 580.746094 580.398438 579.90625 579.421875 579.195312 C 578.449219 578.480469 577.390625 577.933594 576.246094 577.542969 L 630.445312 351.570312 C 631.003906 351.660156 631.570312 351.703125 632.136719 351.703125 C 632.882812 351.703125 633.617188 351.636719 634.347656 351.496094 C 635.078125 351.359375 635.789062 351.15625 636.480469 350.882812 C 637.171875 350.613281 637.832031 350.277344 638.464844 349.882812 C 639.09375 349.488281 639.679688 349.039062 640.222656 348.53125 C 640.769531 348.027344 641.261719 347.472656 641.703125 346.875 C 642.140625 346.277344 642.523438 345.644531 642.84375 344.972656 C 643.164062 344.304688 643.421875 343.609375 643.613281 342.890625 C 643.804688 342.171875 643.925781 341.445312 643.980469 340.703125 C 644.035156 339.960938 644.019531 339.222656 643.933594 338.484375 C 643.847656 337.746094 643.695312 337.023438 643.472656 336.3125 C 643.25 335.605469 642.964844 334.921875 642.617188 334.265625 C 642.265625 333.609375 641.859375 332.992188 641.394531 332.414062 C 640.925781 331.835938 640.410156 331.304688 639.847656 330.820312 C 639.28125 330.339844 638.675781 329.914062 638.03125 329.546875 C 637.382812 329.179688 636.710938 328.875 636.007812 328.632812 C 635.304688 328.390625 634.585938 328.214844 633.847656 328.109375 C 633.113281 328.003906 632.375 327.964844 631.632812 328 C 630.890625 328.03125 630.15625 328.132812 629.433594 328.304688 C 628.710938 328.472656 628.007812 328.710938 627.328125 329.011719 C 626.652344 329.3125 626.003906 329.675781 625.394531 330.097656 C 624.785156 330.523438 624.21875 331 623.695312 331.527344 C 623.175781 332.058594 622.707031 332.632812 622.292969 333.25 C 621.882812 333.867188 621.527344 334.515625 621.238281 335.199219 C 620.945312 335.882812 620.722656 336.589844 620.5625 337.316406 L 581.242188 332.277344 C 581.136719 331.257812 580.902344 330.265625 580.539062 329.308594 C 580.175781 328.347656 579.695312 327.449219 579.101562 326.617188 C 578.503906 325.78125 577.8125 325.035156 577.023438 324.382812 C 576.234375 323.726562 575.371094 323.183594 574.441406 322.75 L 596.335938 32.71875 C 597.113281 32.707031 597.878906 32.621094 598.640625 32.457031 C 599.398438 32.296875 600.136719 32.0625 600.847656 31.753906 C 601.5625 31.445312 602.238281 31.074219 602.878906 30.632812 C 603.519531 30.195312 604.109375 29.695312 604.652344 29.140625 C 605.195312 28.585938 605.675781 27.980469 606.101562 27.332031 C 606.523438 26.679688 606.878906 25.992188 607.167969 25.273438 C 607.457031 24.550781 607.675781 23.808594 607.816406 23.046875 C 607.960938 22.285156 608.027344 21.515625 608.019531 20.738281 C 608.011719 19.960938 607.929688 19.195312 607.769531 18.433594 C 607.609375 17.675781 607.378906 16.9375 607.074219 16.222656 C 606.769531 15.507812 606.398438 14.828125 605.964844 14.1875 C 605.527344 13.546875 605.03125 12.953125 604.476562 12.410156 C 603.921875 11.863281 603.320312 11.378906 602.671875 10.953125 C 602.023438 10.527344 601.339844 10.167969 600.621094 9.875 C 599.898438 9.582031 599.160156 9.363281 598.394531 9.21875 C 597.632812 9.070312 596.863281 9 596.085938 9.003906 C 595.3125 9.011719 594.542969 9.089844 593.78125 9.246094 C 593.019531 9.402344 592.28125 9.628906 591.566406 9.929688 C 590.851562 10.230469 590.171875 10.597656 589.527344 11.03125 C 588.882812 11.46875 588.289062 11.960938 587.742188 12.511719 C 587.195312 13.0625 586.707031 13.660156 586.277344 14.308594 C 585.847656 14.957031 585.484375 15.636719 585.191406 16.355469 C 584.894531 17.074219 584.671875 17.8125 584.523438 18.574219 C 584.371094 19.335938 584.296875 20.105469 584.300781 20.882812 Z M 571.339844 576.949219 C 569.691406 577.101562 568.144531 577.578125 566.695312 578.378906 C 538.089844 501.382812 491.878906 376.339844 478.523438 338.855469 C 479.449219 338.449219 480.308594 337.9375 481.101562 337.3125 C 481.898438 336.6875 482.597656 335.972656 483.210938 335.167969 C 483.820312 334.363281 484.320312 333.492188 484.707031 332.558594 C 485.09375 331.625 485.359375 330.660156 485.5 329.660156 L 557.609375 332.410156 C 557.609375 332.738281 557.609375 333.070312 557.609375 333.421875 C 557.609375 334.199219 557.683594 334.972656 557.835938 335.734375 C 557.988281 336.5 558.210938 337.238281 558.511719 337.957031 C 558.808594 338.679688 559.175781 339.363281 559.605469 340.007812 C 560.039062 340.65625 560.53125 341.253906 561.082031 341.804688 C 561.632812 342.355469 562.230469 342.847656 562.878906 343.28125 C 563.527344 343.714844 564.210938 344.078125 564.929688 344.375 C 565.648438 344.675781 566.390625 344.898438 567.15625 345.050781 C 567.917969 345.203125 568.691406 345.277344 569.46875 345.277344 C 570.117188 345.277344 570.765625 345.21875 571.40625 345.101562 Z M 145.019531 472.300781 C 145.015625 470.828125 144.75 469.40625 144.226562 468.03125 L 251.410156 415.234375 C 251.894531 416.023438 252.460938 416.746094 253.113281 417.402344 C 253.765625 418.058594 254.484375 418.628906 255.269531 419.117188 C 256.054688 419.609375 256.882812 420 257.761719 420.296875 C 258.636719 420.589844 259.535156 420.78125 260.457031 420.867188 L 260.457031 600.640625 C 258.1875 600.839844 256.148438 601.632812 254.339844 603.019531 L 141.980469 480.265625 C 142.972656 479.175781 143.730469 477.945312 144.253906 476.570312 C 144.777344 475.195312 145.035156 473.773438 145.019531 472.300781 Z M 153.492188 280.644531 C 154.269531 279.855469 154.921875 278.972656 155.449219 277.996094 C 155.980469 277.019531 156.363281 275.992188 156.601562 274.90625 C 156.839844 273.824219 156.925781 272.730469 156.859375 271.621094 C 156.789062 270.515625 156.570312 269.4375 156.199219 268.394531 L 262.480469 233.746094 C 262.875 234.664062 263.382812 235.519531 263.992188 236.308594 C 264.605469 237.101562 265.308594 237.804688 266.097656 238.417969 C 266.890625 239.03125 267.746094 239.535156 268.664062 239.933594 C 269.582031 240.328125 270.535156 240.605469 271.523438 240.761719 L 261.226562 397.238281 C 258.796875 397.289062 256.597656 398.023438 254.625 399.441406 Z M 557.914062 330.339844 L 485.542969 327.527344 C 485.511719 326.867188 485.425781 326.21875 485.285156 325.574219 C 485.148438 324.933594 484.957031 324.304688 484.710938 323.691406 C 484.46875 323.082031 484.175781 322.496094 483.832031 321.933594 C 483.492188 321.371094 483.105469 320.839844 482.675781 320.34375 C 482.246094 319.84375 481.777344 319.386719 481.269531 318.964844 C 480.761719 318.546875 480.222656 318.171875 479.652344 317.839844 C 479.085938 317.511719 478.492188 317.230469 477.875 317 C 477.257812 316.769531 476.628906 316.589844 475.980469 316.464844 C 475.335938 316.335938 474.683594 316.265625 474.027344 316.25 C 473.367188 316.230469 472.710938 316.269531 472.0625 316.363281 C 471.410156 316.453125 470.769531 316.597656 470.140625 316.796875 C 469.515625 316.996094 468.90625 317.246094 468.320312 317.546875 C 467.734375 317.84375 467.179688 318.191406 466.652344 318.585938 C 466.121094 318.976562 465.628906 319.410156 465.175781 319.886719 C 464.71875 320.359375 464.304688 320.871094 463.933594 321.414062 C 463.5625 321.957031 463.242188 322.527344 462.964844 323.125 L 284.464844 233.414062 C 285.019531 232 285.300781 230.535156 285.300781 229.015625 C 285.296875 228.222656 285.21875 227.4375 285.058594 226.660156 L 411.9375 188.601562 C 412.109375 189.035156 412.308594 189.453125 412.53125 189.859375 C 412.753906 190.269531 412.996094 190.660156 413.265625 191.039062 C 413.535156 191.421875 413.824219 191.78125 414.136719 192.125 C 414.449219 192.472656 414.777344 192.796875 415.128906 193.101562 C 415.476562 193.410156 415.84375 193.695312 416.226562 193.957031 C 416.609375 194.21875 417.007812 194.460938 417.417969 194.675781 C 417.828125 194.890625 418.25 195.082031 418.683594 195.25 C 419.117188 195.417969 419.5625 195.558594 420.011719 195.671875 C 420.460938 195.789062 420.917969 195.875 421.378906 195.9375 C 421.839844 195.996094 422.300781 196.03125 422.765625 196.039062 C 423.230469 196.046875 423.691406 196.027344 424.15625 195.976562 C 424.617188 195.929688 425.074219 195.855469 425.527344 195.753906 C 425.980469 195.652344 426.429688 195.527344 426.867188 195.371094 C 427.304688 195.21875 427.734375 195.039062 428.152344 194.835938 C 428.566406 194.632812 428.972656 194.402344 429.363281 194.152344 C 429.753906 193.902344 430.128906 193.628906 430.488281 193.332031 L 561.128906 324.972656 C 559.601562 326.480469 558.550781 328.269531 557.980469 330.339844 Z M 562.800781 581.746094 L 409.800781 489.347656 C 410.128906 488.6875 410.394531 488 410.59375 487.289062 C 410.789062 486.578125 410.921875 485.851562 410.984375 485.117188 C 411.046875 484.378906 411.039062 483.644531 410.964844 482.910156 C 410.886719 482.175781 410.746094 481.453125 410.53125 480.746094 C 410.320312 480.039062 410.046875 479.355469 409.707031 478.699219 C 409.367188 478.042969 408.96875 477.425781 408.511719 476.84375 C 408.054688 476.261719 407.550781 475.726562 406.992188 475.242188 C 406.4375 474.753906 405.839844 474.324219 405.203125 473.949219 L 469.589844 339.097656 C 470.925781 339.585938 472.304688 339.835938 473.726562 339.84375 C 474.65625 339.839844 475.574219 339.722656 476.476562 339.492188 C 491.460938 381.929688 546.121094 529.320312 564.804688 579.589844 C 564.066406 580.226562 563.421875 580.945312 562.867188 581.746094 Z M 262.589844 600.664062 L 262.589844 420.890625 C 263.472656 420.8125 264.335938 420.636719 265.179688 420.367188 C 266.019531 420.097656 266.824219 419.734375 267.585938 419.285156 C 268.347656 418.832031 269.046875 418.300781 269.691406 417.695312 C 270.332031 417.085938 270.902344 416.410156 271.390625 415.675781 L 388.304688 479.472656 C 387.640625 480.980469 387.308594 482.554688 387.3125 484.203125 C 387.316406 485.515625 387.53125 486.796875 387.960938 488.039062 C 388.390625 489.285156 389.011719 490.425781 389.820312 491.460938 L 269.433594 603.65625 C 268.492188 602.808594 267.445312 602.128906 266.285156 601.617188 C 265.125 601.105469 263.917969 600.789062 262.65625 600.664062 Z M 273.59375 240.894531 C 274.574219 240.875 275.542969 240.734375 276.488281 240.472656 C 277.4375 240.210938 278.335938 239.832031 279.191406 239.347656 C 280.042969 238.859375 280.824219 238.273438 281.53125 237.585938 C 282.238281 236.902344 282.847656 236.144531 283.363281 235.304688 L 462.171875 325.0625 C 461.953125 326.03125 461.859375 327.015625 461.886719 328.007812 C 461.882812 328.75 461.949219 329.484375 462.085938 330.210938 L 272.207031 403.816406 C 271.78125 402.972656 271.261719 402.1875 270.652344 401.460938 C 270.039062 400.738281 269.347656 400.097656 268.582031 399.539062 C 267.816406 398.980469 266.996094 398.519531 266.121094 398.15625 C 265.246094 397.796875 264.339844 397.539062 263.40625 397.394531 Z M 389.273438 477.601562 L 272.382812 413.804688 C 273.027344 412.292969 273.351562 410.71875 273.351562 409.074219 C 273.34375 407.96875 273.191406 406.882812 272.886719 405.820312 L 462.613281 332.210938 C 463.097656 333.460938 463.769531 334.601562 464.632812 335.625 C 465.496094 336.648438 466.503906 337.507812 467.652344 338.195312 L 403.246094 473.046875 C 401.917969 472.550781 400.546875 472.300781 399.128906 472.300781 C 398.152344 472.300781 397.191406 472.421875 396.246094 472.664062 C 395.296875 472.902344 394.394531 473.253906 393.535156 473.714844 C 392.675781 474.179688 391.886719 474.738281 391.164062 475.394531 C 390.441406 476.054688 389.8125 476.789062 389.273438 477.601562 Z M 410.988281 184.269531 C 410.984375 185.066406 411.058594 185.859375 411.210938 186.644531 L 284.441406 224.613281 C 283.9375 223.359375 283.238281 222.222656 282.347656 221.203125 C 281.457031 220.183594 280.425781 219.34375 279.246094 218.675781 L 328.449219 105.820312 C 329.425781 106.15625 330.425781 106.359375 331.449219 106.433594 C 332.476562 106.507812 333.496094 106.445312 334.507812 106.253906 C 335.519531 106.0625 336.488281 105.742188 337.417969 105.292969 C 338.34375 104.847656 339.199219 104.289062 339.980469 103.621094 L 414.949219 175.601562 C 413.730469 176.703125 412.785156 178.007812 412.109375 179.507812 C 411.4375 181.007812 411.09375 182.582031 411.078125 184.226562 Z M 180.601562 95.636719 L 320.398438 95.636719 C 320.488281 96.601562 320.691406 97.542969 321.011719 98.460938 C 321.332031 99.378906 321.757812 100.242188 322.289062 101.054688 C 322.820312 101.867188 323.441406 102.605469 324.152344 103.265625 C 324.863281 103.925781 325.640625 104.492188 326.492188 104.964844 L 277.179688 217.816406 C 275.964844 217.421875 274.714844 217.226562 273.4375 217.222656 C 271.660156 217.222656 269.964844 217.605469 268.355469 218.367188 L 176.96875 103.136719 C 178.011719 102.152344 178.847656 101.011719 179.472656 99.71875 C 180.097656 98.425781 180.472656 97.066406 180.601562 95.636719 Z M 273.4375 612.457031 C 273.4375 611.140625 273.222656 609.863281 272.796875 608.621094 C 272.371094 607.378906 271.753906 606.234375 270.953125 605.195312 L 391.316406 493 C 393.203125 494.691406 395.402344 495.675781 397.917969 495.949219 C 397.589844 515.089844 396.972656 554.730469 396.621094 594.195312 C 396.070312 653.285156 396.378906 681.289062 396.929688 694.644531 C 395.578125 694.902344 394.308594 695.382812 393.125 696.085938 C 391.941406 696.789062 390.914062 697.671875 390.042969 698.734375 L 271.921875 618.242188 C 272.929688 616.445312 273.4375 614.515625 273.4375 612.457031 Z M 399.21875 694.402344 L 399.042969 694.402344 C 397.851562 662.105469 398.84375 567.46875 400.074219 495.949219 C 401.804688 495.832031 403.429688 495.355469 404.945312 494.515625 C 406.460938 493.679688 407.730469 492.558594 408.746094 491.152344 L 561.746094 583.546875 C 560.953125 585.1875 560.558594 586.917969 560.554688 588.742188 C 560.558594 590.203125 560.820312 591.621094 561.347656 592.984375 L 408.328125 698.582031 C 407.195312 697.242188 405.832031 696.207031 404.238281 695.476562 C 402.644531 694.746094 400.972656 694.386719 399.21875 694.402344 Z M 562.777344 323.609375 L 432.003906 191.816406 C 432.898438 190.742188 433.585938 189.550781 434.0625 188.242188 C 434.539062 186.929688 434.777344 185.574219 434.777344 184.179688 C 434.785156 182.179688 434.308594 180.304688 433.347656 178.550781 L 513.15625 125.621094 C 513.714844 126.308594 514.339844 126.925781 515.035156 127.476562 C 515.730469 128.023438 516.480469 128.488281 517.277344 128.871094 C 518.078125 129.25 518.910156 129.539062 519.773438 129.730469 C 520.640625 129.925781 521.515625 130.023438 522.398438 130.019531 C 522.898438 130.054688 523.398438 130.054688 523.894531 130.019531 L 566.167969 322.09375 C 564.960938 322.429688 563.832031 322.933594 562.777344 323.609375 Z M 426.171875 108.769531 C 474.363281 115.367188 498.460938 118.03125 510.582031 119.0625 C 510.699219 120.777344 511.160156 122.390625 511.96875 123.902344 L 432.160156 176.832031 C 431.710938 176.277344 431.21875 175.765625 430.675781 175.300781 C 430.136719 174.835938 429.558594 174.421875 428.945312 174.058594 C 428.328125 173.699219 427.6875 173.394531 427.019531 173.148438 C 426.347656 172.90625 425.660156 172.722656 424.960938 172.597656 C 424.257812 172.476562 423.546875 172.421875 422.835938 172.425781 C 422.121094 172.433594 421.414062 172.503906 420.714844 172.636719 C 420.011719 172.773438 419.332031 172.96875 418.664062 173.226562 C 418 173.484375 417.363281 173.796875 416.753906 174.171875 L 341.457031 101.972656 C 342.542969 100.585938 343.277344 99.03125 343.65625 97.308594 C 360.664062 99.726562 393.453125 104.367188 426.171875 108.769531 Z M 149.726562 31.773438 C 151.019531 31.21875 152.175781 30.460938 153.199219 29.496094 C 154.222656 28.53125 155.042969 27.421875 155.667969 26.164062 L 320.835938 91.234375 C 320.617188 91.953125 320.46875 92.6875 320.398438 93.433594 L 180.601562 93.433594 C 180.535156 92.707031 180.402344 91.988281 180.203125 91.28125 C 180.003906 90.578125 179.742188 89.894531 179.417969 89.238281 C 179.09375 88.582031 178.710938 87.960938 178.269531 87.375 C 177.828125 86.789062 177.339844 86.25 176.796875 85.757812 C 176.257812 85.261719 175.675781 84.820312 175.050781 84.433594 C 174.429688 84.046875 173.777344 83.722656 173.09375 83.457031 C 172.410156 83.191406 171.707031 82.992188 170.988281 82.859375 C 170.265625 82.722656 169.539062 82.65625 168.804688 82.65625 C 167.929688 82.660156 167.066406 82.757812 166.210938 82.941406 Z M 168.300781 106.371094 L 168.804688 106.371094 C 171.203125 106.402344 173.40625 105.753906 175.40625 104.433594 L 266.617188 219.421875 C 265.851562 219.96875 265.164062 220.597656 264.546875 221.304688 C 263.929688 222.015625 263.40625 222.785156 262.972656 223.621094 C 262.542969 224.453125 262.214844 225.328125 261.988281 226.238281 C 261.765625 227.148438 261.648438 228.074219 261.644531 229.015625 C 261.644531 229.90625 261.746094 230.785156 261.953125 231.65625 L 155.359375 266.414062 C 154.515625 264.957031 153.410156 263.730469 152.046875 262.742188 C 150.683594 261.753906 149.175781 261.085938 147.527344 260.738281 Z M 134.5 277.632812 C 134.691406 278.015625 134.898438 278.382812 135.128906 278.742188 C 135.355469 279.101562 135.605469 279.449219 135.871094 279.78125 C 136.136719 280.113281 136.417969 280.429688 136.71875 280.730469 C 137.019531 281.035156 137.335938 281.316406 137.667969 281.585938 C 138 281.851562 138.34375 282.101562 138.703125 282.332031 C 139.058594 282.5625 139.429688 282.773438 139.8125 282.964844 C 140.191406 283.152344 140.582031 283.324219 140.980469 283.472656 C 141.378906 283.617188 141.785156 283.746094 142.199219 283.847656 C 142.613281 283.953125 143.03125 284.035156 143.453125 284.09375 C 143.875 284.152344 144.296875 284.191406 144.722656 284.203125 C 145.148438 284.214844 145.574219 284.207031 146 284.175781 C 146.421875 284.140625 146.84375 284.085938 147.261719 284.007812 C 147.683594 283.929688 148.09375 283.828125 148.503906 283.707031 C 148.910156 283.582031 149.3125 283.4375 149.703125 283.273438 C 150.09375 283.105469 150.476562 282.921875 150.847656 282.710938 C 151.222656 282.503906 151.582031 282.277344 151.929688 282.03125 L 253.148438 400.824219 C 252.589844 401.378906 252.101562 401.988281 251.675781 402.652344 L 74.25 308.871094 C 74.765625 307.621094 75.058594 306.320312 75.136719 304.96875 C 75.210938 303.621094 75.0625 302.296875 74.691406 300.996094 Z M 68.839844 314.808594 C 70.652344 313.847656 72.121094 312.507812 73.238281 310.785156 L 250.640625 404.523438 C 250.03125 405.980469 249.730469 407.496094 249.738281 409.074219 C 249.738281 410.546875 250.003906 411.96875 250.53125 413.34375 L 143.347656 466.140625 C 143.003906 465.574219 142.621094 465.042969 142.1875 464.539062 C 141.757812 464.039062 141.289062 463.578125 140.78125 463.15625 C 140.273438 462.734375 139.734375 462.355469 139.160156 462.023438 C 138.589844 461.695312 137.996094 461.410156 137.375 461.179688 C 136.757812 460.949219 136.125 460.769531 135.476562 460.644531 C 134.828125 460.519531 134.171875 460.445312 133.511719 460.429688 C 132.851562 460.414062 132.195312 460.453125 131.539062 460.546875 C 130.886719 460.644531 130.246094 460.789062 129.617188 460.992188 Z M 120.175781 699.570312 C 120.9375 698.03125 121.339844 696.398438 121.382812 694.679688 C 121.425781 692.960938 121.101562 691.3125 120.417969 689.738281 L 251.699219 619.011719 C 252.1875 619.75 252.753906 620.425781 253.398438 621.039062 C 254.039062 621.648438 254.742188 622.183594 255.503906 622.636719 C 256.265625 623.09375 257.066406 623.457031 257.910156 623.734375 C 258.753906 624.007812 259.617188 624.1875 260.5 624.269531 L 260.5 774.277344 C 258.808594 774.429688 257.21875 774.917969 255.738281 775.75 C 254.257812 776.585938 253.011719 777.683594 252.007812 779.054688 Z M 271.261719 779.230469 C 270.257812 777.8125 269.003906 776.671875 267.503906 775.808594 C 266 774.945312 264.382812 774.433594 262.65625 774.277344 L 262.65625 624.269531 C 264.234375 624.125 265.722656 623.679688 267.121094 622.941406 C 268.519531 622.203125 269.722656 621.222656 270.730469 620 L 388.851562 700.496094 C 387.851562 702.285156 387.351562 704.207031 387.355469 706.257812 C 387.351562 708.007812 387.726562 709.671875 388.480469 711.253906 Z M 615.765625 734.4375 C 614.929688 734.78125 614.144531 735.210938 613.410156 735.730469 C 612.671875 736.25 612.003906 736.847656 611.402344 737.519531 C 610.800781 738.195312 610.285156 738.925781 609.851562 739.714844 C 609.417969 740.507812 609.078125 741.335938 608.835938 742.203125 L 411.035156 705.378906 C 410.90625 703.617188 410.40625 701.96875 409.539062 700.429688 L 562.316406 594.835938 C 562.84375 595.699219 563.46875 596.484375 564.195312 597.191406 C 564.925781 597.894531 565.730469 598.496094 566.613281 598.992188 C 567.496094 599.488281 568.425781 599.867188 569.40625 600.125 C 570.386719 600.378906 571.382812 600.507812 572.394531 600.511719 C 573.21875 600.511719 574.03125 600.421875 574.835938 600.246094 Z M 620.167969 339.867188 C 620.167969 340.484375 620.214844 341.09375 620.308594 341.703125 C 620.40625 342.3125 620.546875 342.90625 620.734375 343.496094 C 620.921875 344.082031 621.15625 344.648438 621.433594 345.199219 C 621.710938 345.746094 622.027344 346.273438 622.386719 346.773438 C 622.746094 347.273438 623.140625 347.742188 623.574219 348.179688 C 624.007812 348.617188 624.46875 349.019531 624.964844 349.386719 C 625.460938 349.753906 625.980469 350.078125 626.527344 350.363281 C 627.074219 350.648438 627.636719 350.890625 628.222656 351.085938 L 574.109375 577.035156 L 573.472656 577.035156 L 573.472656 344.617188 C 574.539062 344.226562 575.527344 343.695312 576.4375 343.023438 C 577.347656 342.347656 578.148438 341.558594 578.835938 340.65625 C 579.519531 339.753906 580.066406 338.773438 580.472656 337.714844 C 580.878906 336.65625 581.125 335.5625 581.21875 334.433594 L 620.320312 339.425781 C 620.308594 339.574219 620.308594 339.71875 620.320312 339.867188 Z M 568.171875 321.695312 L 525.988281 129.578125 C 526.582031 129.390625 527.160156 129.15625 527.722656 128.875 C 528.28125 128.59375 528.8125 128.269531 529.324219 127.90625 C 529.832031 127.539062 530.308594 127.136719 530.75 126.695312 C 531.195312 126.257812 531.601562 125.785156 531.972656 125.277344 C 532.34375 124.773438 532.671875 124.242188 532.957031 123.683594 C 533.242188 123.128906 533.480469 122.550781 533.675781 121.957031 C 533.871094 121.363281 534.015625 120.757812 534.113281 120.136719 C 534.210938 119.519531 534.261719 118.898438 534.261719 118.273438 C 534.269531 116.59375 533.9375 114.988281 533.257812 113.453125 C 532.578125 111.921875 531.613281 110.59375 530.367188 109.472656 L 589.777344 30.894531 C 591.140625 31.722656 592.605469 32.265625 594.179688 32.519531 L 572.328125 321.960938 C 571.375 321.722656 570.40625 321.597656 569.425781 321.585938 C 569.035156 321.601562 568.644531 321.636719 568.257812 321.695312 Z M 568.171875 321.695312 " fill-opacity="1" fill-rule="nonzero"/><g clip-path="url(#0511b8c302)"><path fill="#1b75bb" d="M 787.382812 741.300781 C 785.703125 741.296875 784.097656 741.632812 782.566406 742.3125 C 781.03125 742.992188 779.703125 743.953125 778.578125 745.195312 L 699.976562 685.800781 C 701.183594 683.882812 701.785156 681.792969 701.78125 679.53125 C 701.78125 678.808594 701.714844 678.089844 701.582031 677.378906 C 701.453125 676.671875 701.257812 675.976562 701 675.304688 C 700.738281 674.628906 700.421875 673.984375 700.046875 673.367188 C 699.667969 672.75 699.242188 672.171875 698.757812 671.632812 C 698.277344 671.097656 697.75 670.605469 697.179688 670.164062 C 696.605469 669.722656 696 669.335938 695.359375 669.003906 C 694.714844 668.675781 694.046875 668.402344 693.355469 668.195312 C 692.664062 667.984375 691.960938 667.839844 691.242188 667.761719 C 693.816406 638.875 704.445312 560.910156 713.003906 501.207031 L 713.644531 501.207031 C 714.304688 501.207031 714.960938 501.148438 715.613281 501.039062 C 716.265625 500.925781 716.90625 500.761719 717.527344 500.542969 C 718.152344 500.324219 718.753906 500.054688 719.335938 499.738281 C 719.914062 499.417969 720.464844 499.054688 720.980469 498.644531 C 721.5 498.230469 721.980469 497.78125 722.425781 497.289062 C 722.867188 496.800781 723.265625 496.273438 723.621094 495.714844 C 723.976562 495.160156 724.285156 494.574219 724.542969 493.964844 C 724.796875 493.355469 725.003906 492.730469 725.15625 492.085938 C 725.308594 491.441406 725.40625 490.792969 725.453125 490.132812 C 725.496094 489.472656 725.484375 488.8125 725.417969 488.15625 C 725.351562 487.496094 725.230469 486.847656 725.054688 486.210938 C 724.878906 485.574219 724.652344 484.953125 724.375 484.355469 C 724.09375 483.753906 723.769531 483.183594 723.394531 482.636719 C 723.019531 482.089844 722.601562 481.582031 722.140625 481.105469 C 721.683594 480.628906 721.1875 480.195312 720.652344 479.804688 C 720.121094 479.410156 719.558594 479.066406 718.96875 478.769531 L 784.015625 313.777344 C 784.808594 314.007812 785.617188 314.15625 786.441406 314.222656 C 787.261719 314.285156 788.085938 314.265625 788.90625 314.15625 C 789.722656 314.046875 790.523438 313.859375 791.304688 313.582031 C 792.082031 313.308594 792.824219 312.957031 793.53125 312.527344 C 794.234375 312.097656 794.890625 311.597656 795.492188 311.03125 C 796.09375 310.464844 796.628906 309.84375 797.101562 309.164062 C 797.570312 308.484375 797.96875 307.765625 798.289062 307.003906 C 798.609375 306.242188 798.847656 305.457031 799.003906 304.644531 C 799.160156 303.835938 799.234375 303.015625 799.21875 302.191406 C 799.203125 301.363281 799.101562 300.546875 798.917969 299.742188 C 798.734375 298.9375 798.464844 298.160156 798.117188 297.410156 C 797.769531 296.660156 797.347656 295.957031 796.855469 295.292969 C 796.359375 294.632812 795.800781 294.03125 795.179688 293.484375 C 794.558594 292.941406 793.886719 292.464844 793.167969 292.0625 C 792.445312 291.65625 791.691406 291.332031 790.902344 291.085938 C 790.113281 290.835938 789.308594 290.675781 788.484375 290.597656 C 787.664062 290.519531 786.839844 290.523438 786.019531 290.617188 C 785.199219 290.710938 784.394531 290.890625 783.613281 291.148438 C 782.828125 291.410156 782.078125 291.75 781.367188 292.167969 C 780.652344 292.585938 779.992188 293.070312 779.378906 293.628906 C 778.769531 294.183594 778.222656 294.796875 777.738281 295.464844 C 777.253906 296.136719 776.847656 296.847656 776.511719 297.605469 C 776.175781 298.359375 775.925781 299.144531 775.753906 299.949219 C 775.582031 300.757812 775.5 301.578125 775.5 302.402344 C 775.503906 303.277344 775.597656 304.144531 775.785156 305 L 724.578125 321.410156 C 724.335938 320.839844 724.046875 320.289062 723.71875 319.761719 C 723.386719 319.234375 723.015625 318.738281 722.609375 318.269531 C 722.199219 317.800781 721.753906 317.367188 721.277344 316.96875 C 720.800781 316.570312 720.296875 316.210938 719.761719 315.890625 C 719.226562 315.574219 718.671875 315.296875 718.09375 315.066406 C 717.519531 314.832031 716.925781 314.648438 716.320312 314.507812 C 715.714844 314.371094 715.101562 314.28125 714.480469 314.238281 C 713.859375 314.195312 713.238281 314.203125 712.621094 314.257812 C 712 314.3125 711.386719 314.414062 710.785156 314.566406 C 710.183594 314.71875 709.59375 314.914062 709.023438 315.160156 C 708.449219 315.402344 707.898438 315.691406 707.371094 316.019531 C 706.847656 316.351562 706.347656 316.71875 705.878906 317.128906 C 705.410156 317.539062 704.976562 317.980469 704.578125 318.457031 C 704.175781 318.933594 703.816406 319.4375 703.5 319.972656 C 703.179688 320.503906 702.902344 321.0625 702.671875 321.636719 C 702.4375 322.214844 702.253906 322.804688 702.113281 323.410156 L 547.707031 302.578125 C 547.707031 302.46875 547.707031 302.359375 547.707031 302.25 C 547.707031 301.46875 547.628906 300.699219 547.476562 299.9375 C 547.324219 299.171875 547.101562 298.429688 546.800781 297.710938 C 546.503906 296.992188 546.140625 296.308594 545.707031 295.660156 C 545.273438 295.015625 544.78125 294.414062 544.230469 293.863281 C 543.679688 293.3125 543.082031 292.824219 542.433594 292.390625 C 541.785156 291.957031 541.101562 291.59375 540.382812 291.292969 C 539.664062 290.996094 538.921875 290.769531 538.160156 290.621094 C 537.394531 290.46875 536.625 290.390625 535.84375 290.390625 C 534.722656 290.394531 533.621094 290.554688 532.542969 290.875 L 509.175781 231.082031 C 509.847656 230.746094 510.484375 230.351562 511.085938 229.894531 C 511.683594 229.4375 512.234375 228.929688 512.734375 228.367188 C 513.238281 227.808594 513.679688 227.203125 514.066406 226.558594 C 514.453125 225.910156 514.777344 225.234375 515.035156 224.527344 C 515.292969 223.820312 515.480469 223.09375 515.601562 222.351562 C 515.722656 221.609375 515.769531 220.863281 515.746094 220.109375 C 515.722656 219.355469 515.632812 218.613281 515.464844 217.878906 C 515.300781 217.144531 515.070312 216.429688 514.769531 215.742188 C 514.46875 215.050781 514.105469 214.394531 513.683594 213.773438 C 513.257812 213.152344 512.777344 212.578125 512.242188 212.046875 C 511.707031 211.515625 511.128906 211.042969 510.503906 210.621094 C 509.878906 210.203125 509.21875 209.84375 508.527344 209.550781 C 507.832031 209.257812 507.117188 209.03125 506.382812 208.875 C 505.644531 208.714844 504.902344 208.628906 504.148438 208.613281 C 503.394531 208.59375 502.648438 208.652344 501.90625 208.777344 C 501.164062 208.902344 500.441406 209.097656 499.734375 209.363281 C 499.027344 209.625 498.355469 209.953125 497.710938 210.34375 C 497.070312 210.738281 496.46875 211.1875 495.914062 211.695312 C 495.355469 212.199219 494.851562 212.753906 494.398438 213.355469 C 493.949219 213.960938 493.558594 214.597656 493.226562 215.277344 C 492.898438 215.953125 492.636719 216.652344 492.441406 217.382812 C 492.242188 218.109375 492.117188 218.847656 492.0625 219.597656 C 492.007812 220.347656 492.023438 221.097656 492.113281 221.84375 C 492.199219 222.59375 492.355469 223.324219 492.582031 224.042969 L 346.316406 284.890625 C 346.136719 284.519531 345.933594 284.15625 345.710938 283.804688 C 345.488281 283.453125 345.25 283.113281 344.992188 282.785156 C 344.734375 282.460938 344.460938 282.148438 344.171875 281.851562 C 343.882812 281.554688 343.578125 281.269531 343.257812 281.003906 C 342.9375 280.738281 342.605469 280.492188 342.257812 280.261719 C 341.910156 280.03125 341.554688 279.820312 341.1875 279.625 C 340.816406 279.433594 340.441406 279.261719 340.054688 279.105469 C 339.667969 278.953125 339.273438 278.820312 338.875 278.710938 C 338.472656 278.597656 338.066406 278.507812 337.65625 278.4375 C 337.246094 278.371094 336.835938 278.324219 336.421875 278.296875 C 336.003906 278.273438 335.589844 278.269531 335.175781 278.285156 C 334.757812 278.304688 334.347656 278.34375 333.933594 278.40625 C 333.523438 278.46875 333.117188 278.550781 332.714844 278.65625 C 332.3125 278.761719 331.917969 278.886719 331.527344 279.03125 C 331.136719 279.179688 330.757812 279.34375 330.386719 279.53125 C 330.015625 279.71875 329.652344 279.921875 329.304688 280.148438 C 328.953125 280.371094 328.617188 280.613281 328.292969 280.871094 C 327.964844 281.132812 327.65625 281.410156 327.363281 281.703125 C 327.066406 281.992188 326.785156 282.300781 326.523438 282.625 C 326.261719 282.945312 326.015625 283.28125 325.789062 283.628906 C 325.558594 283.976562 325.351562 284.335938 325.160156 284.703125 C 324.972656 285.074219 324.800781 285.453125 324.652344 285.839844 C 324.5 286.226562 324.371094 286.621094 324.261719 287.023438 C 324.15625 287.425781 324.066406 287.832031 324.003906 288.242188 C 323.9375 288.652344 323.894531 289.066406 323.871094 289.480469 C 323.847656 289.894531 323.847656 290.308594 323.871094 290.726562 C 323.890625 291.140625 323.933594 291.554688 324 291.964844 C 324.066406 292.375 324.152344 292.78125 324.257812 293.179688 C 324.367188 293.582031 324.496094 293.976562 324.644531 294.367188 C 324.796875 294.753906 324.964844 295.132812 325.152344 295.503906 C 325.34375 295.871094 325.550781 296.230469 325.777344 296.578125 C 326.007812 296.925781 326.25 297.261719 326.515625 297.585938 L 203.726562 409.976562 C 202.894531 409.199219 201.964844 408.558594 200.945312 408.050781 C 199.925781 407.542969 198.851562 407.191406 197.726562 406.996094 C 196.605469 406.800781 195.476562 406.769531 194.34375 406.902344 C 193.210938 407.035156 192.121094 407.328125 191.074219 407.777344 L 120.21875 276.578125 C 120.566406 276.347656 120.902344 276.097656 121.226562 275.832031 C 121.546875 275.566406 121.855469 275.285156 122.148438 274.988281 C 122.441406 274.6875 122.714844 274.375 122.976562 274.046875 C 123.234375 273.722656 123.476562 273.382812 123.699219 273.027344 C 123.921875 272.675781 124.128906 272.3125 124.3125 271.9375 C 124.496094 271.5625 124.660156 271.179688 124.808594 270.789062 C 124.953125 270.398438 125.074219 270 125.175781 269.59375 C 125.28125 269.1875 125.359375 268.78125 125.417969 268.367188 C 125.480469 267.953125 125.515625 267.539062 125.53125 267.121094 C 125.546875 266.703125 125.539062 266.285156 125.511719 265.871094 C 125.484375 265.453125 125.433594 265.039062 125.359375 264.628906 C 125.289062 264.214844 125.195312 263.808594 125.078125 263.410156 C 124.960938 263.007812 124.828125 262.613281 124.667969 262.226562 C 124.511719 261.839844 124.335938 261.460938 124.136719 261.09375 C 123.941406 260.726562 123.726562 260.367188 123.492188 260.023438 C 123.257812 259.679688 123.003906 259.347656 122.734375 259.027344 C 122.464844 258.707031 122.179688 258.40625 121.878906 258.117188 C 121.574219 257.828125 121.257812 257.554688 120.929688 257.300781 C 120.597656 257.046875 120.253906 256.808594 119.898438 256.589844 C 119.542969 256.371094 119.175781 256.171875 118.800781 255.988281 C 118.425781 255.808594 118.039062 255.648438 117.644531 255.511719 C 117.25 255.371094 116.851562 255.25 116.445312 255.15625 C 116.039062 255.058594 115.628906 254.980469 115.214844 254.925781 C 114.800781 254.875 114.386719 254.839844 113.96875 254.832031 C 113.550781 254.820312 113.132812 254.832031 112.71875 254.867188 C 112.300781 254.898438 111.886719 254.957031 111.476562 255.035156 C 111.066406 255.109375 110.660156 255.210938 110.261719 255.332031 C 109.863281 255.449219 109.46875 255.589844 109.082031 255.753906 C 108.699219 255.914062 108.324219 256.097656 107.957031 256.296875 C 107.589844 256.5 107.238281 256.71875 106.894531 256.957031 C 106.550781 257.199219 106.222656 257.453125 105.90625 257.726562 C 105.59375 258 105.292969 258.289062 105.007812 258.59375 C 104.722656 258.902344 104.453125 259.21875 104.203125 259.554688 C 103.953125 259.886719 103.71875 260.234375 103.503906 260.589844 C 103.289062 260.949219 103.09375 261.320312 102.917969 261.699219 C 102.742188 262.074219 102.585938 262.464844 102.453125 262.859375 C 102.316406 263.253906 102.203125 263.65625 102.113281 264.0625 C 102.019531 264.46875 101.949219 264.878906 101.898438 265.296875 C 101.851562 265.710938 101.824219 266.125 101.820312 266.542969 C 101.8125 266.960938 101.832031 267.378906 101.871094 267.792969 C 101.910156 268.207031 101.96875 268.621094 102.054688 269.03125 C 102.136719 269.441406 102.238281 269.84375 102.363281 270.242188 C 102.492188 270.640625 102.636719 271.03125 102.804688 271.414062 C 102.96875 271.796875 103.15625 272.171875 103.363281 272.535156 C 103.566406 272.894531 103.792969 273.246094 104.035156 273.585938 C 104.277344 273.925781 104.539062 274.253906 104.816406 274.566406 C 105.09375 274.875 105.386719 275.171875 105.695312 275.453125 C 106.003906 275.734375 106.328125 276 106.664062 276.246094 L 27.160156 408.0625 C 25.523438 407.253906 23.792969 406.851562 21.96875 406.855469 C 21.191406 406.855469 20.417969 406.929688 19.65625 407.082031 C 18.890625 407.234375 18.148438 407.457031 17.429688 407.757812 C 16.710938 408.054688 16.027344 408.417969 15.378906 408.851562 C 14.730469 409.285156 14.132812 409.777344 13.582031 410.328125 C 13.03125 410.878906 12.539062 411.476562 12.105469 412.125 C 11.675781 412.769531 11.308594 413.453125 11.011719 414.171875 C 10.710938 414.894531 10.488281 415.632812 10.335938 416.398438 C 10.183594 417.160156 10.109375 417.933594 10.109375 418.710938 C 10.109375 419.488281 10.183594 420.261719 10.335938 421.023438 C 10.488281 421.789062 10.710938 422.53125 11.011719 423.25 C 11.308594 423.96875 11.675781 424.652344 12.105469 425.296875 C 12.539062 425.945312 13.03125 426.542969 13.582031 427.09375 C 14.132812 427.644531 14.730469 428.136719 15.378906 428.570312 C 16.027344 429.003906 16.710938 429.367188 17.429688 429.664062 C 18.148438 429.964844 18.890625 430.1875 19.65625 430.339844 C 20.417969 430.492188 21.191406 430.570312 21.96875 430.570312 C 23.71875 430.574219 25.382812 430.203125 26.964844 429.445312 L 94.980469 546.632812 C 93.996094 547.328125 93.136719 548.148438 92.402344 549.105469 C 91.667969 550.058594 91.09375 551.101562 90.679688 552.230469 C 90.265625 553.359375 90.027344 554.523438 89.964844 555.726562 C 89.90625 556.929688 90.027344 558.113281 90.328125 559.277344 C 90.628906 560.441406 91.097656 561.535156 91.734375 562.558594 C 92.367188 563.582031 93.140625 564.484375 94.050781 565.273438 C 94.960938 566.058594 95.96875 566.691406 97.074219 567.171875 C 98.179688 567.652344 99.328125 567.953125 100.527344 568.082031 L 63.753906 765.480469 L 62.632812 765.480469 C 61.855469 765.488281 61.085938 765.570312 60.324219 765.726562 C 59.5625 765.886719 58.824219 766.117188 58.105469 766.421875 C 57.390625 766.726562 56.710938 767.097656 56.066406 767.535156 C 55.425781 767.972656 54.828125 768.46875 54.285156 769.023438 C 53.738281 769.578125 53.253906 770.183594 52.824219 770.832031 C 52.398438 771.484375 52.039062 772.167969 51.75 772.890625 C 51.457031 773.613281 51.238281 774.355469 51.09375 775.117188 C 50.945312 775.882812 50.878906 776.652344 50.882812 777.429688 C 50.890625 778.210938 50.972656 778.980469 51.128906 779.742188 C 51.289062 780.503906 51.519531 781.242188 51.820312 781.957031 C 52.125 782.675781 52.496094 783.355469 52.933594 784 C 53.367188 784.640625 53.863281 785.238281 54.417969 785.78125 C 54.972656 786.328125 55.574219 786.816406 56.226562 787.242188 C 56.875 787.671875 57.5625 788.03125 58.28125 788.324219 C 59.003906 788.617188 59.746094 788.835938 60.511719 788.980469 C 61.273438 789.128906 62.046875 789.199219 62.824219 789.195312 C 63.601562 789.1875 64.371094 789.105469 65.132812 788.949219 C 65.894531 788.792969 66.636719 788.5625 67.351562 788.261719 C 68.070312 787.960938 68.75 787.589844 69.394531 787.152344 C 70.039062 786.71875 70.632812 786.222656 71.179688 785.667969 C 71.726562 785.117188 72.214844 784.515625 72.644531 783.863281 C 73.074219 783.214844 73.433594 782.53125 73.726562 781.808594 C 74.019531 781.089844 74.242188 780.347656 74.390625 779.582031 C 74.535156 778.820312 74.609375 778.046875 74.605469 777.269531 C 74.601562 776.457031 74.519531 775.648438 74.363281 774.851562 L 208.589844 733.910156 C 209.042969 735.03125 209.652344 736.0625 210.421875 736.996094 C 211.191406 737.929688 212.082031 738.730469 213.09375 739.390625 C 214.105469 740.054688 215.195312 740.550781 216.359375 740.878906 C 217.523438 741.203125 218.710938 741.351562 219.921875 741.316406 C 221.132812 741.277344 222.308594 741.0625 223.453125 740.667969 C 224.59375 740.269531 225.652344 739.710938 226.625 738.988281 C 227.597656 738.269531 228.4375 737.417969 229.148438 736.441406 C 229.859375 735.460938 230.410156 734.398438 230.792969 733.25 L 456.804688 787.433594 C 456.714844 787.996094 456.671875 788.558594 456.671875 789.128906 C 456.671875 789.871094 456.738281 790.605469 456.878906 791.335938 C 457.015625 792.066406 457.21875 792.777344 457.492188 793.46875 C 457.761719 794.160156 458.097656 794.820312 458.492188 795.449219 C 458.886719 796.078125 459.339844 796.664062 459.84375 797.207031 C 460.347656 797.75 460.902344 798.242188 461.5 798.683594 C 462.097656 799.125 462.730469 799.503906 463.402344 799.828125 C 464.070312 800.148438 464.765625 800.402344 465.480469 800.59375 C 466.199219 800.785156 466.929688 800.910156 467.671875 800.960938 C 468.410156 801.015625 469.152344 801 469.886719 800.914062 C 470.625 800.832031 471.351562 800.679688 472.058594 800.457031 C 472.769531 800.238281 473.449219 799.953125 474.105469 799.601562 C 474.761719 799.253906 475.378906 798.847656 475.957031 798.382812 C 476.539062 797.917969 477.070312 797.402344 477.550781 796.835938 C 478.035156 796.273438 478.460938 795.667969 478.828125 795.023438 C 479.195312 794.378906 479.503906 793.703125 479.746094 793.003906 C 479.988281 792.300781 480.160156 791.582031 480.269531 790.847656 C 480.375 790.113281 480.414062 789.375 480.382812 788.632812 C 480.351562 787.890625 480.25 787.15625 480.082031 786.433594 C 479.910156 785.710938 479.675781 785.011719 479.375 784.332031 C 479.074219 783.652344 478.714844 783.007812 478.292969 782.398438 C 477.867188 781.785156 477.394531 781.21875 476.863281 780.699219 C 476.335938 780.175781 475.761719 779.707031 475.148438 779.292969 C 474.53125 778.878906 473.878906 778.527344 473.199219 778.234375 C 472.515625 777.941406 471.8125 777.714844 471.085938 777.558594 L 476.101562 738.246094 C 477.125 738.140625 478.113281 737.90625 479.074219 737.546875 C 480.035156 737.183594 480.933594 736.703125 481.765625 736.109375 C 482.601562 735.511719 483.347656 734.820312 484.003906 734.03125 C 484.65625 733.238281 485.199219 732.378906 485.628906 731.445312 L 775.742188 753.335938 C 775.753906 754.113281 775.839844 754.878906 776 755.636719 C 776.164062 756.398438 776.398438 757.132812 776.703125 757.847656 C 777.011719 758.558594 777.386719 759.234375 777.824219 759.875 C 778.265625 760.515625 778.761719 761.105469 779.316406 761.648438 C 779.871094 762.191406 780.476562 762.671875 781.125 763.097656 C 781.777344 763.519531 782.460938 763.875 783.183594 764.164062 C 783.902344 764.453125 784.644531 764.667969 785.40625 764.8125 C 786.171875 764.957031 786.941406 765.023438 787.714844 765.015625 C 788.492188 765.007812 789.261719 764.925781 790.019531 764.769531 C 790.78125 764.609375 791.519531 764.378906 792.234375 764.074219 C 792.949219 763.773438 793.625 763.402344 794.269531 762.964844 C 794.910156 762.53125 795.503906 762.035156 796.046875 761.484375 C 796.59375 760.929688 797.078125 760.328125 797.503906 759.679688 C 797.933594 759.03125 798.292969 758.347656 798.585938 757.628906 C 798.878906 756.910156 799.097656 756.171875 799.246094 755.410156 C 799.390625 754.648438 799.464844 753.878906 799.460938 753.101562 C 799.457031 752.328125 799.378906 751.558594 799.222656 750.796875 C 799.066406 750.035156 798.839844 749.296875 798.542969 748.582031 C 798.242188 747.867188 797.875 747.1875 797.441406 746.542969 C 797.007812 745.898438 796.515625 745.304688 795.964844 744.757812 C 795.417969 744.207031 794.816406 743.71875 794.171875 743.289062 C 793.527344 742.859375 792.84375 742.496094 792.125 742.199219 C 791.410156 741.902344 790.667969 741.679688 789.90625 741.53125 C 789.144531 741.378906 788.378906 741.304688 787.601562 741.304688 Z M 231.144531 728.390625 C 231.003906 726.738281 230.527344 725.191406 229.714844 723.746094 C 306.730469 695.148438 431.828125 648.953125 469.304688 635.597656 C 469.707031 636.523438 470.222656 637.382812 470.847656 638.179688 C 471.472656 638.972656 472.1875 639.671875 472.992188 640.285156 C 473.796875 640.894531 474.667969 641.394531 475.597656 641.78125 C 476.53125 642.167969 477.5 642.433594 478.5 642.570312 L 475.707031 714.660156 C 475.363281 714.640625 475.015625 714.640625 474.671875 714.660156 C 473.894531 714.664062 473.121094 714.742188 472.359375 714.894531 C 471.597656 715.046875 470.855469 715.273438 470.136719 715.570312 C 469.417969 715.867188 468.734375 716.234375 468.085938 716.667969 C 467.441406 717.101562 466.84375 717.589844 466.292969 718.140625 C 465.742188 718.691406 465.25 719.289062 464.816406 719.9375 C 464.382812 720.582031 464.019531 721.265625 463.71875 721.984375 C 463.421875 722.703125 463.195312 723.445312 463.042969 724.207031 C 462.890625 724.96875 462.8125 725.742188 462.8125 726.519531 C 462.8125 727.167969 462.871094 727.816406 462.988281 728.457031 Z M 335.84375 302.25 C 337.308594 302.246094 338.722656 301.984375 340.089844 301.457031 L 392.902344 408.613281 C 392.109375 409.09375 391.382812 409.65625 390.726562 410.304688 C 390.066406 410.957031 389.492188 411.671875 389 412.460938 C 388.511719 413.246094 388.121094 414.078125 387.828125 414.953125 C 387.535156 415.832031 387.347656 416.734375 387.269531 417.65625 L 207.425781 417.65625 C 207.226562 415.386719 206.433594 413.347656 205.046875 411.539062 L 327.855469 299.148438 C 328.945312 300.148438 330.179688 300.917969 331.558594 301.453125 C 332.9375 301.988281 334.363281 302.253906 335.84375 302.25 Z M 527.550781 310.71875 C 528.339844 311.496094 529.222656 312.148438 530.195312 312.675781 C 531.167969 313.203125 532.195312 313.585938 533.277344 313.828125 C 534.359375 314.066406 535.453125 314.152344 536.558594 314.082031 C 537.664062 314.015625 538.738281 313.792969 539.785156 313.425781 L 574.441406 419.679688 C 573.523438 420.074219 572.667969 420.578125 571.875 421.191406 C 571.085938 421.804688 570.382812 422.507812 569.769531 423.296875 C 569.15625 424.085938 568.648438 424.941406 568.25 425.859375 C 567.855469 426.777344 567.578125 427.730469 567.421875 428.71875 L 410.902344 418.425781 C 410.84375 416 410.109375 413.800781 408.703125 411.824219 Z M 477.820312 715.035156 L 480.636719 642.59375 C 481.292969 642.5625 481.941406 642.476562 482.585938 642.339844 C 483.230469 642.199219 483.855469 642.007812 484.46875 641.761719 C 485.078125 641.519531 485.667969 641.226562 486.230469 640.886719 C 486.792969 640.542969 487.320312 640.15625 487.820312 639.726562 C 488.320312 639.296875 488.777344 638.828125 489.195312 638.320312 C 489.617188 637.816406 489.992188 637.277344 490.324219 636.707031 C 490.652344 636.136719 490.933594 635.546875 491.164062 634.929688 C 491.394531 634.3125 491.574219 633.683594 491.699219 633.035156 C 491.824219 632.390625 491.898438 631.738281 491.914062 631.078125 C 491.933594 630.421875 491.894531 629.765625 491.800781 629.117188 C 491.710938 628.464844 491.566406 627.824219 491.367188 627.199219 C 491.167969 626.570312 490.917969 625.964844 490.617188 625.378906 C 490.316406 624.792969 489.972656 624.234375 489.578125 623.707031 C 489.1875 623.179688 488.753906 622.6875 488.277344 622.230469 C 487.800781 621.777344 487.292969 621.363281 486.75 620.992188 C 486.203125 620.621094 485.632812 620.296875 485.035156 620.023438 L 574.683594 441.5 C 576.097656 442.0625 577.5625 442.34375 579.085938 442.335938 C 579.882812 442.335938 580.675781 442.253906 581.460938 442.097656 L 619.507812 568.917969 C 619.074219 569.09375 618.65625 569.292969 618.246094 569.515625 C 617.839844 569.738281 617.445312 569.984375 617.066406 570.253906 C 616.6875 570.519531 616.324219 570.8125 615.980469 571.125 C 615.632812 571.433594 615.308594 571.765625 615 572.117188 C 614.695312 572.464844 614.410156 572.832031 614.148438 573.21875 C 613.886719 573.601562 613.644531 574 613.429688 574.410156 C 613.210938 574.820312 613.023438 575.246094 612.855469 575.679688 C 612.6875 576.113281 612.546875 576.554688 612.433594 577.007812 C 612.320312 577.457031 612.230469 577.914062 612.171875 578.375 C 612.109375 578.835938 612.078125 579.300781 612.070312 579.765625 C 612.066406 580.230469 612.085938 580.691406 612.132812 581.15625 C 612.183594 581.617188 612.257812 582.074219 612.359375 582.53125 C 612.464844 582.984375 612.589844 583.429688 612.746094 583.867188 C 612.902344 584.304688 613.082031 584.734375 613.285156 585.152344 C 613.492188 585.570312 613.722656 585.972656 613.972656 586.363281 C 614.226562 586.753906 614.5 587.128906 614.796875 587.488281 L 483.101562 718.09375 C 481.613281 716.605469 479.851562 715.585938 477.820312 715.035156 Z M 226.4375 719.917969 L 318.855469 566.960938 C 320.496094 567.75 322.226562 568.148438 324.050781 568.148438 C 325.078125 568.148438 326.089844 568.019531 327.082031 567.753906 C 328.078125 567.492188 329.019531 567.105469 329.914062 566.59375 C 330.808594 566.085938 331.621094 565.472656 332.351562 564.75 C 333.085938 564.027344 333.714844 563.226562 334.238281 562.339844 L 469.125 626.734375 C 468.628906 628.058594 468.378906 629.429688 468.378906 630.847656 C 468.375 631.785156 468.484375 632.707031 468.707031 633.617188 C 426.261719 648.597656 278.851562 703.246094 228.550781 721.921875 C 227.933594 721.160156 227.230469 720.492188 226.4375 719.917969 Z M 207.511719 419.789062 L 387.355469 419.789062 C 387.433594 420.671875 387.605469 421.53125 387.875 422.375 C 388.140625 423.214844 388.5 424.019531 388.949219 424.78125 C 389.398438 425.542969 389.929688 426.242188 390.535156 426.886719 C 391.144531 427.53125 391.816406 428.097656 392.550781 428.589844 L 328.738281 545.445312 C 327.234375 544.804688 325.664062 544.480469 324.027344 544.480469 C 322.714844 544.480469 321.433594 544.691406 320.191406 545.117188 C 318.945312 545.542969 317.804688 546.160156 316.765625 546.964844 L 204.542969 426.628906 C 205.378906 425.675781 206.046875 424.613281 206.539062 423.445312 C 207.035156 422.273438 207.328125 421.054688 207.425781 419.789062 Z M 567.378906 430.789062 C 567.398438 431.769531 567.542969 432.734375 567.804688 433.683594 C 568.066406 434.628906 568.445312 435.527344 568.933594 436.382812 C 569.417969 437.234375 570.003906 438.015625 570.6875 438.722656 C 571.371094 439.425781 572.132812 440.039062 572.96875 440.554688 L 483.210938 619.320312 C 482.234375 619.070312 481.246094 618.945312 480.238281 618.945312 C 479.5 618.9375 478.765625 619.003906 478.039062 619.144531 L 404.324219 429.269531 C 405.171875 428.847656 405.957031 428.328125 406.683594 427.714844 C 407.410156 427.105469 408.050781 426.417969 408.613281 425.652344 C 409.171875 424.886719 409.636719 424.066406 410 423.191406 C 410.363281 422.3125 410.621094 421.40625 410.769531 420.472656 Z M 330.5625 546.457031 L 394.375 429.578125 C 395.875 430.242188 397.445312 430.570312 399.085938 430.570312 C 400.199219 430.5625 401.292969 430.40625 402.363281 430.105469 L 475.992188 619.78125 C 474.738281 620.257812 473.597656 620.925781 472.570312 621.789062 C 471.542969 622.652344 470.6875 623.664062 470.007812 624.820312 L 335.097656 560.429688 C 335.601562 559.101562 335.859375 557.730469 335.867188 556.3125 C 335.867188 555.335938 335.746094 554.375 335.507812 553.429688 C 335.269531 552.480469 334.917969 551.578125 334.457031 550.71875 C 333.992188 549.859375 333.433594 549.066406 332.773438 548.347656 C 332.113281 547.625 331.378906 546.996094 330.5625 546.457031 Z M 623.972656 568.148438 C 623.175781 568.152344 622.382812 568.230469 621.597656 568.390625 L 583.550781 441.566406 C 584.824219 441.058594 585.972656 440.347656 586.996094 439.4375 C 588.019531 438.527344 588.859375 437.46875 589.515625 436.265625 L 702.421875 485.566406 C 702.085938 486.539062 701.882812 487.535156 701.8125 488.558594 C 701.738281 489.585938 701.796875 490.601562 701.992188 491.609375 C 702.183594 492.621094 702.503906 493.585938 702.949219 494.511719 C 703.394531 495.4375 703.953125 496.292969 704.621094 497.070312 L 632.644531 572.042969 C 631.535156 570.816406 630.226562 569.867188 628.71875 569.1875 C 627.207031 568.511719 625.628906 568.164062 623.972656 568.148438 Z M 712.585938 337.753906 L 712.585938 477.601562 C 711.621094 477.6875 710.679688 477.890625 709.761719 478.207031 C 708.84375 478.527344 707.980469 478.953125 707.167969 479.484375 C 706.359375 480.015625 705.621094 480.636719 704.964844 481.347656 C 704.304688 482.0625 703.746094 482.84375 703.277344 483.695312 L 590.371094 434.394531 C 590.859375 432.949219 591.058594 431.464844 590.960938 429.941406 C 590.867188 428.417969 590.488281 426.972656 589.824219 425.597656 L 705.082031 334.234375 C 706.082031 335.253906 707.226562 336.070312 708.515625 336.675781 C 709.808594 337.28125 711.164062 337.640625 712.585938 337.753906 Z M 195.628906 430.570312 C 196.945312 430.570312 198.226562 430.355469 199.472656 429.925781 C 200.714844 429.496094 201.855469 428.875 202.890625 428.0625 L 315.117188 548.417969 C 313.410156 550.292969 312.417969 552.492188 312.144531 555.015625 C 293 554.6875 253.347656 554.070312 213.894531 553.71875 C 154.765625 553.167969 126.777344 553.476562 113.398438 554.027344 C 113.140625 552.675781 112.660156 551.40625 111.957031 550.226562 C 111.253906 549.042969 110.367188 548.011719 109.304688 547.140625 L 189.820312 429.050781 C 191.625 430.0625 193.5625 430.566406 195.628906 430.570312 Z M 113.664062 556.3125 L 113.664062 556.136719 C 145.964844 554.949219 240.628906 555.941406 312.167969 557.171875 C 312.296875 558.898438 312.777344 560.515625 313.617188 562.03125 C 314.453125 563.542969 315.570312 564.8125 316.964844 565.839844 L 224.542969 718.796875 C 223.066406 718.082031 221.507812 717.6875 219.863281 717.621094 C 218.222656 717.550781 216.636719 717.8125 215.105469 718.402344 L 109.480469 565.398438 C 110.820312 564.273438 111.859375 562.914062 112.589844 561.324219 C 113.320312 559.734375 113.679688 558.0625 113.664062 556.3125 Z M 484.507812 719.832031 L 616.339844 589.070312 C 617.242188 589.832031 618.242188 590.445312 619.332031 590.90625 C 620.421875 591.367188 621.554688 591.660156 622.730469 591.78125 C 623.90625 591.902344 625.074219 591.847656 626.238281 591.617188 C 627.398438 591.390625 628.5 590.996094 629.542969 590.433594 L 682.351562 670.222656 C 681.664062 670.78125 681.042969 671.40625 680.496094 672.101562 C 679.945312 672.796875 679.484375 673.542969 679.101562 674.34375 C 678.722656 675.144531 678.433594 675.976562 678.238281 676.839844 C 678.046875 677.703125 677.949219 678.578125 677.953125 679.464844 C 677.953125 679.964844 677.992188 680.464844 678.0625 680.960938 L 486.09375 723.21875 C 485.738281 722.007812 485.210938 720.878906 484.507812 719.832031 Z M 699.539062 583.195312 C 693.046875 631.375 690.273438 655.464844 689.238281 667.585938 C 687.523438 667.6875 685.910156 668.152344 684.398438 668.96875 L 631.324219 589.246094 C 631.878906 588.800781 632.390625 588.304688 632.859375 587.765625 C 633.324219 587.226562 633.738281 586.648438 634.101562 586.035156 C 634.464844 585.417969 634.765625 584.777344 635.011719 584.105469 C 635.257812 583.4375 635.441406 582.75 635.5625 582.046875 C 635.683594 581.34375 635.738281 580.636719 635.730469 579.921875 C 635.722656 579.207031 635.648438 578.5 635.511719 577.800781 C 635.375 577.101562 635.179688 576.417969 634.917969 575.753906 C 634.65625 575.089844 634.339844 574.453125 633.964844 573.847656 L 706.183594 498.65625 C 707.582031 499.742188 709.144531 500.472656 710.871094 500.855469 C 708.515625 517.726562 703.9375 550.550781 699.539062 583.195312 Z M 776.554688 306.890625 C 777.105469 308.179688 777.863281 309.335938 778.824219 310.355469 C 779.785156 311.378906 780.890625 312.203125 782.144531 312.832031 L 717.074219 477.953125 C 716.359375 477.730469 715.625 477.585938 714.875 477.515625 L 714.875 337.753906 C 715.605469 337.691406 716.324219 337.558594 717.03125 337.359375 C 717.738281 337.160156 718.417969 336.898438 719.074219 336.574219 C 719.734375 336.25 720.355469 335.867188 720.941406 335.425781 C 721.527344 334.984375 722.070312 334.496094 722.566406 333.953125 C 723.0625 333.414062 723.503906 332.832031 723.890625 332.210938 C 724.277344 331.585938 724.605469 330.933594 724.871094 330.25 C 725.136719 329.566406 725.339844 328.863281 725.472656 328.144531 C 725.609375 327.425781 725.679688 326.695312 725.679688 325.964844 C 725.679688 325.085938 725.578125 324.222656 725.371094 323.367188 Z M 701.738281 325.457031 C 701.738281 325.613281 701.738281 325.789062 701.738281 325.964844 C 701.71875 328.359375 702.367188 330.558594 703.675781 332.5625 L 588.65625 423.75 C 588.109375 422.988281 587.480469 422.300781 586.769531 421.6875 C 586.058594 421.078125 585.289062 420.558594 584.453125 420.128906 C 583.621094 419.699219 582.746094 419.375 581.835938 419.15625 C 580.925781 418.933594 580 418.824219 579.0625 418.820312 C 578.171875 418.824219 577.289062 418.925781 576.421875 419.128906 L 541.742188 312.609375 C 543.203125 311.765625 544.425781 310.664062 545.414062 309.296875 C 546.402344 307.933594 547.070312 306.425781 547.417969 304.777344 Z M 530.542969 291.667969 C 530.160156 291.855469 529.789062 292.066406 529.429688 292.292969 C 529.070312 292.523438 528.726562 292.769531 528.394531 293.035156 C 528.058594 293.300781 527.742188 293.585938 527.441406 293.886719 C 527.140625 294.1875 526.855469 294.503906 526.585938 294.832031 C 526.320312 295.164062 526.070312 295.507812 525.839844 295.867188 C 525.609375 296.226562 525.398438 296.59375 525.210938 296.976562 C 525.019531 297.355469 524.851562 297.746094 524.703125 298.144531 C 524.554688 298.546875 524.425781 298.953125 524.324219 299.363281 C 524.21875 299.777344 524.136719 300.195312 524.078125 300.617188 C 524.019531 301.039062 523.980469 301.460938 523.96875 301.886719 C 523.957031 302.3125 523.964844 302.738281 523.996094 303.164062 C 524.03125 303.585938 524.085938 304.007812 524.164062 304.425781 C 524.242188 304.84375 524.34375 305.257812 524.464844 305.667969 C 524.589844 306.074219 524.734375 306.472656 524.898438 306.867188 C 525.066406 307.257812 525.253906 307.640625 525.460938 308.011719 C 525.667969 308.382812 525.894531 308.742188 526.140625 309.089844 L 407.316406 410.285156 C 406.742188 409.746094 406.125 409.261719 405.46875 408.832031 L 499.296875 231.433594 C 500.761719 232.035156 502.289062 232.335938 503.871094 232.335938 C 504.996094 232.339844 506.09375 232.1875 507.171875 231.875 Z M 493.375 226.023438 C 494.34375 227.832031 495.6875 229.296875 497.402344 230.421875 L 403.640625 407.777344 C 402.175781 407.160156 400.652344 406.851562 399.0625 406.855469 C 397.597656 406.863281 396.183594 407.132812 394.816406 407.667969 L 342.003906 300.511719 C 342.5625 300.167969 343.089844 299.78125 343.585938 299.347656 C 344.082031 298.917969 344.539062 298.449219 344.957031 297.945312 C 345.371094 297.4375 345.746094 296.902344 346.074219 296.332031 C 346.402344 295.765625 346.683594 295.175781 346.914062 294.558594 C 347.148438 293.945312 347.328125 293.316406 347.453125 292.675781 C 347.582031 292.03125 347.65625 291.378906 347.675781 290.726562 C 347.695312 290.070312 347.664062 289.417969 347.574219 288.765625 C 347.488281 288.117188 347.347656 287.476562 347.15625 286.851562 Z M 108.492188 277.414062 C 110.03125 278.175781 111.664062 278.578125 113.382812 278.617188 C 115.101562 278.660156 116.75 278.339844 118.328125 277.652344 L 189.027344 408.832031 C 188.289062 409.324219 187.609375 409.886719 186.996094 410.527344 C 186.382812 411.171875 185.851562 411.871094 185.394531 412.632812 C 184.9375 413.394531 184.574219 414.199219 184.300781 415.042969 C 184.027344 415.886719 183.847656 416.75 183.769531 417.632812 L 33.785156 417.632812 C 33.632812 415.9375 33.140625 414.351562 32.304688 412.871094 C 31.46875 411.386719 30.363281 410.144531 28.988281 409.140625 Z M 28.832031 428.390625 C 30.246094 427.386719 31.382812 426.132812 32.25 424.628906 C 33.113281 423.128906 33.625 421.515625 33.785156 419.789062 L 183.835938 419.789062 C 183.972656 421.367188 184.414062 422.855469 185.152344 424.257812 C 185.894531 425.65625 186.878906 426.859375 188.105469 427.863281 L 107.609375 545.953125 C 105.816406 544.957031 103.894531 544.457031 101.84375 544.457031 C 100.09375 544.449219 98.429688 544.824219 96.851562 545.578125 Z M 73.613281 772.804688 C 73.277344 771.960938 72.847656 771.164062 72.324219 770.417969 C 71.804688 769.671875 71.203125 768.992188 70.527344 768.386719 C 69.851562 767.777344 69.113281 767.253906 68.3125 766.8125 C 67.515625 766.375 66.679688 766.035156 65.800781 765.789062 L 102.636719 568.015625 C 104.398438 567.898438 106.050781 567.40625 107.589844 566.542969 L 213.234375 719.371094 C 212.371094 719.898438 211.585938 720.523438 210.886719 721.253906 C 210.183594 721.980469 209.585938 722.789062 209.089844 723.667969 C 208.59375 724.550781 208.21875 725.480469 207.964844 726.460938 C 207.707031 727.4375 207.578125 728.433594 207.578125 729.445312 C 207.582031 730.265625 207.660156 731.082031 207.820312 731.886719 Z M 468.3125 777.203125 C 467.695312 777.203125 467.082031 777.25 466.472656 777.347656 C 465.863281 777.441406 465.265625 777.582031 464.679688 777.773438 C 464.09375 777.960938 463.523438 778.195312 462.972656 778.472656 C 462.421875 778.75 461.898438 779.070312 461.398438 779.429688 C 460.894531 779.789062 460.425781 780.1875 459.988281 780.621094 C 459.550781 781.054688 459.148438 781.519531 458.78125 782.015625 C 458.417969 782.511719 458.09375 783.03125 457.808594 783.582031 C 457.523438 784.128906 457.285156 784.695312 457.089844 785.277344 L 231.058594 731.160156 C 231.058594 730.941406 231.058594 730.742188 231.058594 730.523438 L 463.558594 730.523438 C 463.945312 731.589844 464.476562 732.578125 465.144531 733.488281 C 465.816406 734.402344 466.605469 735.203125 467.503906 735.886719 C 468.40625 736.574219 469.386719 737.121094 470.445312 737.523438 C 471.503906 737.929688 472.597656 738.175781 473.726562 738.265625 L 468.730469 777.292969 Z M 486.464844 725.242188 L 678.65625 682.984375 C 678.964844 683.976562 679.402344 684.914062 679.960938 685.792969 C 680.519531 686.671875 681.179688 687.464844 681.949219 688.167969 C 682.71875 688.875 683.5625 689.464844 684.488281 689.945312 C 685.414062 690.425781 686.382812 690.777344 687.402344 691 C 688.417969 691.226562 689.449219 691.3125 690.488281 691.261719 C 691.53125 691.214844 692.546875 691.03125 693.539062 690.714844 C 694.53125 690.394531 695.464844 689.953125 696.339844 689.390625 C 697.214844 688.824219 698.003906 688.15625 698.703125 687.382812 L 777.324219 746.78125 C 776.472656 748.132812 775.929688 749.597656 775.695312 751.179688 L 486.09375 729.355469 C 486.34375 728.40625 486.46875 727.4375 486.464844 726.453125 C 486.488281 726.070312 486.488281 725.691406 486.464844 725.308594 Z M 486.464844 725.242188 " fill-opacity="1" fill-rule="nonzero"/></g></svg>